<svg width="49" height="49" viewBox="0 0 49 49" fill="none" xmlns="http://www.w3.org/2000/svg">
<g id="instagram-round-icon 1" clip-path="url(#clip0_24_921)">
<path id="Vector" fill-rule="evenodd" clip-rule="evenodd" d="M24.5074 0C38.0327 0 49.0147 10.9673 49.0147 24.5074C49.0147 38.0327 38.0474 49.0147 24.5074 49.0147C10.982 49.0147 0 38.0474 0 24.5074C0 10.982 10.9673 0 24.5074 0ZM18.7738 11.0555H30.2409C34.5485 11.0555 38.0621 14.5398 38.0621 18.7738V30.2115C38.0621 34.4602 34.5485 37.9298 30.2409 37.9298H18.7738C14.4662 37.9298 10.9526 34.4602 10.9526 30.2115V18.7738C10.9526 14.5251 14.4809 11.0555 18.7738 11.0555ZM24.4338 17.2448C28.6238 17.2448 32.0198 20.6409 32.0198 24.8308C32.0198 29.0207 28.6238 32.4167 24.4338 32.4167C20.2439 32.4167 16.8479 29.0207 16.8479 24.8308C16.8479 20.6409 20.2439 17.2448 24.4338 17.2448ZM24.4338 19.8029C27.1977 19.8029 29.447 22.0522 29.447 24.8161C29.447 27.58 27.1977 29.8293 24.4338 29.8293C21.6553 29.8293 19.4206 27.58 19.4206 24.8161C19.4206 22.0522 21.67 19.8029 24.4338 19.8029ZM31.7699 16.1863C32.4461 16.1863 33.0048 16.7303 33.0048 17.4212C33.0048 18.0975 32.4608 18.6562 31.7699 18.6562C31.0936 18.6562 30.535 18.1122 30.535 17.4212C30.535 16.745 31.0789 16.1863 31.7699 16.1863ZM19.7147 13.246H29.3C32.9019 13.246 35.8422 16.1716 35.8422 19.7588V29.4029C35.8422 32.9901 32.9019 35.9157 29.3 35.9157H19.7147C16.1128 35.9157 13.1725 32.9901 13.1725 29.4029V19.7588C13.1725 16.1716 16.1128 13.246 19.7147 13.246Z" fill="#B8B8B8"/>
</g>
<defs>
<clipPath id="clip0_24_921">
<rect width="49" height="49" fill="white"/>
</clipPath>
</defs>
</svg>
