<svg width="49" height="49" viewBox="0 0 49 49" fill="none" xmlns="http://www.w3.org/2000/svg">
<g id="twitter-round-icon 2" clip-path="url(#clip0_24_919)">
<path id="Vector" fill-rule="evenodd" clip-rule="evenodd" d="M24.5074 0C38.0327 0 49.0147 10.9673 49.0147 24.5074C49.0147 38.0327 38.0474 49.0147 24.5074 49.0147C10.982 49.0147 0 38.0474 0 24.5074C0 10.982 10.9673 0 24.5074 0ZM37.7387 16.2892C36.7684 16.7303 35.7246 17.0096 34.622 17.1419C35.7393 16.4656 36.6067 15.4071 37.0036 14.1428C35.9598 14.7603 34.7837 15.216 33.5635 15.4659C32.5638 14.4074 31.1671 13.7606 29.5941 13.7606C26.595 13.7606 24.1692 16.1863 24.1692 19.1854C24.1692 19.6118 24.2133 20.0234 24.3015 20.4203C19.7882 20.1851 15.7894 18.0387 13.1137 14.7456C12.6286 15.5689 12.3786 16.5098 12.3786 17.48C12.3786 19.3618 13.3342 21.0231 14.7897 21.9934C13.8929 21.964 13.0696 21.7141 12.3345 21.3171V21.3906C12.3345 24.0222 14.2016 26.2127 16.6862 26.7126C16.2304 26.8302 15.7453 26.9037 15.2601 26.9037C14.9073 26.9037 14.5692 26.8743 14.231 26.8008C14.922 28.9619 16.9214 30.5203 19.303 30.5791C17.4359 32.0345 15.1131 32.9019 12.5551 32.9019C12.114 32.9019 11.6877 32.8725 11.2613 32.8284C13.6724 34.372 16.5245 35.2688 19.5824 35.2688C29.5647 35.2688 35.0336 26.9919 35.0336 19.8176C35.0336 19.5824 35.0336 19.3471 35.0189 19.1119C36.0774 18.3474 37.0036 17.3918 37.724 16.3039L37.7387 16.2892Z" fill="#B8B8B8"/>
</g>
<defs>
<clipPath id="clip0_24_919">
<rect width="49" height="49" fill="white"/>
</clipPath>
</defs>
</svg>
